<svg xmlns="http://www.w3.org/2000/svg" data-name="Layer 1" viewBox="0 0 100 125" x="0px" y="0px"><path d="M29.58,36.13l.94.32a24.66,24.66,0,0,1,3.84-7l.06-.07a24.58,24.58,0,0,1,5.25-4.93,1,1,0,1,0-1.14-1.64,26.32,26.32,0,0,0-5.63,5.27l-.06.07a26.45,26.45,0,0,0-4.19,7.56Z"/><path d="M42.07,22.9a.91.91,0,0,0,.45-.11c.57-.29,1.17-.56,1.76-.81a1,1,0,0,0,.55-1.3,1,1,0,0,0-1.31-.55c-.64.27-1.29.57-1.9.88a1,1,0,0,0,.45,1.89Z"/><path d="M23.86,45.44l.19.88h0l.24,1.08h0a26.45,26.45,0,0,0,9.76,14.54,23.72,23.72,0,0,0-8.14,18v6H73.71v-6a23.76,23.76,0,0,0-8-17.83A26.66,26.66,0,0,0,76.29,44.35l.07.07.14-2.06v0l0-.47h0c0-.39,0-.78,0-1.18A26.6,26.6,0,0,0,62.94,17.5l-.24-.13h0A26.55,26.55,0,0,0,23.44,40.68a26.84,26.84,0,0,0,.44,4.76ZM27.93,79.9a21.73,21.73,0,0,1,7.84-16.78c.19.12.39.23.59.34l.74.44c.31.17.63.33.95.49l.77.38c.32.15.65.29,1,.42l.78.32,1,.36.79.26,1.08.28.78.2c.37.08.76.14,1.14.21s.5.1.75.13c.42.07.85.1,1.27.15l.49.05-2.24,2.3L48,71.8,44.77,83.87H27.93Zm22.25-8.67-1.73-1.78,1.73-1.78,1.73,1.78Zm0,2.87.61-.63,2.74,10.4H46.84l2.73-10.4Zm21.53,5.8v4H55.59L52.42,71.8l2.28-2.35-2.27-2.34h.1c.42,0,.84-.08,1.26-.14.25,0,.49-.08.74-.13s.75-.12,1.12-.2l.77-.2c.36-.08.71-.17,1.06-.27l.78-.25c.34-.11.68-.22,1-.35s.52-.2.77-.31l1-.41.77-.37.93-.48.74-.43.57-.32A21.76,21.76,0,0,1,71.71,79.9Zm2.76-37.2A24.49,24.49,0,0,1,50.59,65.21l-.41-.41-.41.43A25.85,25.85,0,0,1,46.35,65a24.77,24.77,0,0,1-5.25-1.39c-.14,0-.27-.12-.41-.18-.58-.24-1.16-.5-1.73-.78a26.83,26.83,0,0,1-2.69-1.56A24.5,24.5,0,0,1,26.21,46.77l.09,0,.7-.23.06,0,.81-.27.09,0c1.42-.49,3.09-1.07,4.91-1.73l.3-.11.76-.27.47-.17.69-.26.58-.21.7-.26L37,43l.71-.27.61-.24.69-.26.65-.25.69-.28.66-.26.68-.27.68-.28.66-.27.7-.29.66-.27.69-.29.66-.29.68-.29.65-.29.68-.3.63-.28L49,38l.63-.29.64-.31.62-.29.63-.31.59-.29.62-.32.56-.29.6-.32.53-.29c.2-.1.38-.21.57-.32l.51-.28.54-.32.48-.29.51-.32.44-.28.49-.33.39-.27.46-.33.35-.26.43-.35.29-.23.42-.39.21-.19q.29-.29.54-.57ZM50,16.13a24.53,24.53,0,0,1,12,3.11l.21.11a24.8,24.8,0,0,1,6.09,4.91,24.5,24.5,0,0,1,6.3,15.81L60.61,27.43,60,28.55a3.68,3.68,0,0,1-.25.4l-.11.13-.22.27-.17.18-.24.25-.21.19-.28.25-.25.2-.31.25-.29.21-.34.26-.33.22-.37.25-.36.23-.41.26-.38.24L55,32.6l-.41.24-.48.27-.44.25-.5.27-.47.25-.53.28-.49.25-.57.28c-.16.09-.33.17-.5.25s-.39.2-.6.29l-.52.26-.62.29-.54.25-.65.3-.55.25-.69.31-.56.24-.7.31-.59.25-.71.31-.59.25-.75.31-.6.24-.76.32-.61.24-.77.31-.62.25-.79.31-.64.25-.78.3-.65.25-.8.3-.66.24-.8.3-.66.25-.8.29-.69.25-.77.27-.73.26-.72.26-.77.27-.71.24-.79.27-.66.23-.84.29-.17,0A24.54,24.54,0,0,1,50,16.13Z"/><path d="M42.9,42.55a1,1,0,0,0-1,1v2.31a1,1,0,0,0,2,0V43.55A1,1,0,0,0,42.9,42.55Z"/><path d="M57.1,42.55a1,1,0,0,0-1,1v2.31a1,1,0,0,0,2,0V43.55A1,1,0,0,0,57.1,42.55Z"/><path d="M53,50.53a1,1,0,0,0-1.23.7,1.84,1.84,0,0,1-3.54,0,1,1,0,0,0-1.93.54,3.84,3.84,0,0,0,7.4,0A1,1,0,0,0,53,50.53Z"/><text x="0" y="115" fill="#000000" font-size="5px" font-weight="bold" font-family="'Helvetica Neue', Helvetica, Arial-Unicode, Arial, Sans-serif">Created by Ahmad Taufik</text><text x="0" y="120" fill="#000000" font-size="5px" font-weight="bold" font-family="'Helvetica Neue', Helvetica, Arial-Unicode, Arial, Sans-serif">from the Noun Project</text></svg>